<svg version="1.1" xmlns="http://www.w3.org/2000/svg" viewBox="0 0 173.04605036185103 94.60994955140268" width="173.04605036185103" height="94.60994955140268">
  <!-- svg-source:excalidraw -->
  
  <defs>
    <style class="style-fonts">
      @font-face {
        font-family: "Virgil";
        src: url("https://excalidraw.com/Virgil.woff2");
      }
      @font-face {
        font-family: "Cascadia";
        src: url("https://excalidraw.com/Cascadia.woff2");
      }
      @font-face {
        font-family: "Assistant";
        src: url("https://excalidraw.com/Assistant-Regular.woff2");
      }
    </style>
    
  </defs>
  <g stroke-linecap="round" transform="translate(10 10) rotate(0 76.52302518092552 37.304974775701226)"><path d="M32.65 5.06 C41.1 1.19, 55.24 -1.33, 67.15 -1.48 C79.06 -1.63, 93.25 1.98, 104.12 4.14 C114.99 6.3, 124.76 7.55, 132.39 11.47 C140.01 15.4, 146.53 21.64, 149.86 27.7 C153.2 33.76, 155.38 41.91, 152.41 47.83 C149.45 53.75, 140.09 59.16, 132.08 63.23 C124.07 67.3, 114.94 70.67, 104.38 72.25 C93.83 73.83, 80.44 73.4, 68.75 72.72 C57.06 72.05, 44.54 71.03, 34.24 68.21 C23.94 65.39, 12.74 61.25, 6.95 55.78 C1.17 50.31, -0.51 41.2, -0.46 35.37 C-0.42 29.54, -3.24 26.24, 7.23 20.79 C17.69 15.34, 48.69 5.91, 62.32 2.67 C75.96 -0.57, 88.91 0.73, 89.03 1.35 M48.71 1.85 C58.78 -0.68, 70.17 -0.48, 81.57 -0.19 C92.97 0.1, 106.61 0.18, 117.13 3.59 C127.66 6.99, 138.23 14.33, 144.71 20.26 C151.19 26.19, 155.8 33.28, 156.01 39.16 C156.21 45.04, 151.66 50.83, 145.96 55.56 C140.25 60.28, 131.09 64.14, 121.78 67.5 C112.47 70.85, 101.68 74.57, 90.09 75.7 C78.49 76.83, 63.9 76.55, 52.21 74.26 C40.51 71.97, 27.93 65.98, 19.9 61.95 C11.87 57.93, 7.27 55.25, 4.01 50.11 C0.76 44.98, -1.53 36.89, 0.37 31.12 C2.26 25.35, 7.52 20.69, 15.38 15.51 C23.24 10.34, 41.91 2.28, 47.52 0.05 C53.13 -2.17, 48.73 1.19, 49.04 2.17" stroke="#cfc5c3" stroke-width="4" fill="none"></path></g></svg>